<svg width="21" height="21" viewBox="0 0 21 21" fill="none" xmlns="http://www.w3.org/2000/svg">
<g clip-path="url(#clip0_47_314)">
<path d="M19.3425 11.1903C19.3425 10.5403 19.2841 9.91531 19.1758 9.31531H10.5425V12.8653H15.4758C15.2591 14.007 14.6091 14.9736 13.6341 15.6236V17.932H16.6091C18.3425 16.332 19.3425 13.982 19.3425 11.1903Z" fill="#4285F4"/>
<path d="M10.5425 20.1486C13.0175 20.1486 15.0925 19.3319 16.6091 17.9319L13.6341 15.6236C12.8175 16.1736 11.7758 16.5069 10.5425 16.5069C8.15913 16.5069 6.13413 14.8986 5.40913 12.7319H2.35913V15.0986C3.86746 18.0903 6.95913 20.1486 10.5425 20.1486Z" fill="#34A853"/>
<path d="M5.40913 12.7237C5.22579 12.1737 5.11746 11.5903 5.11746 10.982C5.11746 10.3737 5.22579 9.79032 5.40913 9.24032V6.87366H2.35913C1.73413 8.10699 1.37579 9.49866 1.37579 10.982C1.37579 12.4653 1.73413 13.857 2.35913 15.0903L4.73413 13.2403L5.40913 12.7237Z" fill="#FBBC05"/>
<path d="M10.5425 5.46531C11.8925 5.46531 13.0925 5.93197 14.0508 6.83197L16.6758 4.20697C15.0841 2.72364 13.0175 1.81531 10.5425 1.81531C6.95913 1.81531 3.86746 3.87364 2.35913 6.87364L5.40913 9.24031C6.13413 7.07364 8.15913 5.46531 10.5425 5.46531Z" fill="#EA4335"/>
</g>
<defs>
<clipPath id="clip0_47_314">
<rect width="20" height="20" fill="white" transform="translate(0.54248 0.981934)"/>
</clipPath>
</defs>
</svg>
